<?xml version="1.0"?>
<svg xmlns="http://www.w3.org/2000/svg" xmlns:xlink="http://www.w3.org/1999/xlink" xmlns:svgjs="http://svgjs.com/svgjs" version="1.1" width="512" height="512" x="0" y="0" viewBox="0 0 64 64" style="enable-background:new 0 0 512 512" xml:space="preserve" class=""><g><g xmlns="http://www.w3.org/2000/svg"><g><g><path d="m15.84 43.31-1.84 3.69-5.9-4.92-.02-.02c.28-.37.59-.73.92-1.06l4.38 1.25c.56.16 1.1.36 1.62.62.29.13.57.28.84.44z" fill="#4fd1c5" data-original="#3bafda" style="" class=""/></g><g><path d="m23 56v6h-7.32c-2.91 0-5.62-1.5-7.16-3.97l-.4-.64c-1.39-2.21-2.12-4.78-2.12-7.39v-1.76c0-2.24.74-4.41 2.08-6.18l.02.02 5.9 4.92 1.84-3.69c.76.44 1.46.99 2.08 1.61.4.4.77.83 1.09 1.28h.01c.09 1.71.75 3.35 1.88 4.65l-.01.01c.07.49.11.99.11 1.49v3.65z" fill="#4fd1c5" data-original="#4fc1e9" style="" class=""/></g><g><path d="m11.78 25.56-.01.01-1.77 4.43c-.55 0-1.05.22-1.41.59-.37.36-.59.86-.59 1.41 0 .64.25 1.25.71 1.71l1.29 1.29-.7 4.22-4.66-3.96c-1.68-1.43-2.64-3.53-2.64-5.74v-.4c0-1.33.24-2.64.69-3.86.45-1.23 1.13-2.38 1.99-3.38 2.11-2.46 5.18-3.88 8.42-3.88h6.9c.55 0 1 .45 1 1v2c0 1.44-.61 2.73-1.58 3.64-.89.85-2.1 1.36-3.42 1.36h-2.89c-.48 0-.96-.15-1.33-.44z" fill="#b27946" data-original="#b27946" style="" class=""/></g><g><path d="m43 56v-3.65c0-.5.04-1 .11-1.49l-.01-.01c1.13-1.3 1.79-2.94 1.88-4.65h.01c.32-.45.69-.88 1.09-1.28.85-.85 1.84-1.55 2.92-2.05.52-.26 1.06-.46 1.62-.62l4.38-1.25c.87.87 1.57 1.89 2.07 2.99h.01c.6 1.33.92 2.77.92 4.25v1.76c0 2.61-.73 5.18-2.12 7.39l-.4.64c-1.54 2.47-4.25 3.97-7.16 3.97h-7.32v-6z" fill="#4fd1c5" data-original="#fcd770" style="" class=""/></g><g><path d="m51 24c0 .55-.22 1.05-.59 1.41-.36.37-.86.59-1.41.59h-2c-1.01 0-1.93-.38-2.64-1-.83-.73-1.36-1.8-1.36-3 0-1.1.45-2.1 1.17-2.83.73-.72 1.73-1.17 2.83-1.17h3.9c3.23 0 6.31 1.42 8.43 3.89l.08.09c1.67 1.95 2.59 4.43 2.59 7v.54c0 3.48-3 6.48-3 6.48l1.36.9c1.02.69 1.64 1.84 1.64 3.07 0 .88-.31 1.7-.84 2.34-.52.65-1.26 1.11-2.13 1.28l-1.95.4h-.01c-.5-1.1-1.2-2.12-2.07-2.99l-1-6 1.29-1.29c.46-.46.71-1.07.71-1.71 0-.55-.22-1.05-.59-1.41-.36-.37-.86-.59-1.41-.59v-1.84c0-1.89-1.21-3.56-3-4.16z" fill="#656d78" data-original="#656d78" style="" class=""/></g><g><path d="m45 45.72v.03c0 .15 0 .3-.02.45-.09 1.71-.75 3.35-1.88 4.65-.12.15-.26.31-.4.45l-4.7 4.7c-1.66 0-3 1.34-3 3l-3 3-3-3c0-1.66-1.34-3-3-3l-4.7-4.7c-.14-.14-.28-.3-.4-.45-1.13-1.3-1.79-2.94-1.88-4.65-.02-.15-.02-.3-.02-.45v-.03c0-1.76.6-3.47 1.7-4.85.72-.91 1.64-1.62 2.66-2.11 1.02-.5 2.16-.76 3.32-.76 1.51 0 2.99.45 4.25 1.29l1.07.71 1.07-.71c1.26-.84 2.74-1.29 4.25-1.29 1.16 0 2.3.26 3.32.76 1.02.49 1.94 1.2 2.66 2.11 1.1 1.38 1.7 3.09 1.7 4.85z" fill="#4fd1c5" data-original="#ff826e" style="" class=""/></g><g><path d="m41 56v6h-3c-.83 0-1.58-.34-2.12-.88s-.88-1.29-.88-2.12c0-1.66 1.34-3 3-3z" fill="#f0d0b4" data-original="#f0d0b4" style="" class=""/></g><g><path d="m26 56c1.66 0 3 1.34 3 3 0 .83-.34 1.58-.88 2.12s-1.29.88-2.12.88h-3v-6z" fill="#f0d0b4" data-original="#f0d0b4" style="" class=""/></g><g><path d="m19.58 37c-.77 1.76-2.53 3-4.58 3v2.86.01c-.52-.26-1.06-.46-1.62-.62l-4.38-1.25.3-1.78.7-4.22-1.29-1.29c-.46-.46-.71-1.07-.71-1.71 0-.55.22-1.05.59-1.41.36-.37.86-.59 1.41-.59l1.77-4.43.01-.01c.37.29.85.44 1.33.44h2.89c1.32 0 2.53-.51 3.42-1.36.83 1.36 2.58 4.78 2.58 9.36h-2v1c0 .71-.15 1.39-.42 2z" fill="#f0d0b4" data-original="#f0d0b4" style="" class=""/></g><g><path d="m51 24c1.79.6 3 2.27 3 4.16v1.84c.55 0 1.05.22 1.41.59.37.36.59.86.59 1.41 0 .64-.25 1.25-.71 1.71l-1.29 1.29 1 6-4.38 1.25c-.56.16-1.1.36-1.62.62v-.01-2.86c-2.05 0-3.81-1.24-4.58-3-.27-.61-.42-1.29-.42-2v-1h-2c0-4.22 1.48-7.45 2.36-8.99v-.01c.71.62 1.63 1 2.64 1h2c.55 0 1.05-.22 1.41-.59.37-.36.59-.86.59-1.41z" fill="#f0d0b4" data-original="#f0d0b4" style="" class=""/></g><g><path d="m39 24s0 6-5.44 6h-1.56v-.78s0-5.22 7-5.22z" fill="#48cfad" data-original="#48cfad" style="" class=""/></g><g><path d="m25 18c7 0 7 5.22 7 5.22v.78h-1.56c-5.44 0-5.44-6-5.44-6z" fill="#48cfad" data-original="#48cfad" style="" class=""/></g><g><path d="m42 10s0 8-8 8h-2c0-3 2-8 10-8z" fill="#48cfad" data-original="#48cfad" style="" class=""/></g><g><path d="m32 10v1h-2c-7 0-7-9-7-9 9 0 9 8 9 8z" fill="#5cd6b3" data-original="#5cd6b3" style="" class=""/></g></g><g><path d="m60.094 21.239c-2.31-2.694-5.663-4.239-9.199-4.239h-3.895c-2.757 0-5 2.243-5 5 0 1.167.418 2.261 1.149 3.152-.927 1.8-2.149 4.914-2.149 8.848v1h2c0 2.968 2.166 5.439 5 5.917v1.353c-.797.435-1.537.966-2.212 1.577-.288-1.307-.865-2.545-1.708-3.599-1.652-2.063-4.116-3.248-6.761-3.248-1.528 0-3.004.42-4.319 1.18v-7.18h.556c5.097 0 6.444-4.579 6.444-7v-1h-1c-2.961 0-4.825.863-6 1.947v-5.947h1c7.119 0 9-5.887 9-9v-1h-1c-4.572 0-7.367 1.573-9 3.546v-2.546c0-.09-.114-9-10-9h-1v1c0 3.459 1.672 10 8 10h1v6 .947c-1.175-1.084-3.039-1.947-6-1.947h-1v1c0 2.421 1.347 7 6.444 7h.556v13.18c-1.315-.76-2.79-1.18-4.319-1.18-2.645 0-5.109 1.185-6.761 3.249-.841 1.051-1.418 2.287-1.706 3.6-.675-.612-1.415-1.143-2.214-1.579v-1.353c2.834-.478 5-2.949 5-5.917h2v-1c0-4.234-1.432-7.539-2.346-9.22.84-1.032 1.346-2.348 1.346-3.78v-2c0-1.103-.897-2-2-2h-6.895c-3.536 0-6.885 1.54-9.187 4.226-1.881 2.194-2.918 4.997-2.918 7.889v.406c0 2.503 1.09 4.873 2.993 6.504l4.224 3.592-.155.931c-1.971 2.092-3.062 4.807-3.062 7.694v1.758c0 2.806.786 5.545 2.272 7.921l.401.644c1.737 2.777 4.729 4.435 8.004 4.435h10.323c1.511 0 2.814-.852 3.494-2.092l2.506 2.506 2.506-2.506c.68 1.24 1.983 2.092 3.494 2.092h10.323c3.275 0 6.267-1.658 8.003-4.437l.401-.642c1.487-2.376 2.273-5.115 2.273-7.921v-1.758c0-1.211-.199-2.39-.566-3.509l.796-.159c2.184-.438 3.77-2.372 3.77-4.6 0-1.571-.781-3.03-2.088-3.902l-.413-.275c.975-1.237 2.501-3.601 2.501-6.276v-.539c.001-2.806-1.003-5.523-2.83-7.653zm-22.196 3.812c-.258 1.486-1.165 3.949-4.342 3.949h-.542c.084-.813.679-3.542 4.884-3.949zm3.005-14.015c-.307 1.955-1.586 5.964-6.903 5.964h-.924c.421-2.771 2.647-5.613 7.827-5.964zm-10.903-1.036c-4.664 0-5.703-4.78-5.934-6.956 6.808.578 6.932 6.686 6.934 6.956zm19 29c-1.028 0-1.956-.4-2.666-1.04 1.526-.187 2.859-1.111 3.56-2.513l-1.789-.895c-.446.893-1.343 1.448-2.341 1.448h-.622c-.084-.322-.142-.653-.142-1v-2h-1.971c.166-2.818.998-5.082 1.715-6.56.694.352 1.455.56 2.256.56h2c1.132 0 2.108-.638 2.619-1.567.852.627 1.381 1.63 1.381 2.729v2.838h1c.551 0 1 .448 1 1 0 .378-.147.732-.414 1l-1.657 1.657.938 5.627-3.526 1.007c-.116.033-.226.085-.341.122v-2.413zm-8.586 16 1.586-1.586v1.586zm-9.97-32c-3.178 0-4.085-2.465-4.343-3.949 4.181.4 4.795 3.082 4.884 3.949zm-8.444 32v-1.586l1.586 1.586zm-8.892-11.787c.482.138.946.327 1.398.538l-.836 1.673-3.742-3.119zm5.892-10.213v2c0 .347-.058.678-.142 1h-.622c-.998 0-1.895-.555-2.341-1.447l-1.789.895c.701 1.402 2.034 2.326 3.56 2.513-.71.639-1.638 1.039-2.666 1.039h-1v2.412c-.116-.037-.226-.089-.342-.122l-3.525-1.006.938-5.626-1.656-1.658c-.268-.268-.415-.622-.415-1 0-.552.449-1 1-1h.677l1.642-4.105c.254.063.517.105.788.105h2.893c1.135 0 2.194-.323 3.1-.873.731 1.434 1.69 3.836 1.87 6.873zm-13.708 1.504c-1.457-1.248-2.292-3.064-2.292-4.983v-.406c0-2.416.865-4.756 2.437-6.589 1.921-2.241 4.716-3.526 7.668-3.526h6.895v2c0 2.206-1.794 4-4 4h-2.893c-.493 0-.937-.278-1.054-.662-.139-.454.029-.778.142-.931.191-.259.484-.407.805-.407h1v-2h-1c-.948 0-1.85.455-2.414 1.218-.573.775-.736 1.762-.446 2.706.099.322.259.616.462.877l-1.313 3.284c-1.312.32-2.289 1.506-2.289 2.915 0 .911.355 1.769 1 2.414l.929.929-.329 1.975zm4.078 23.001-.402-.644c-1.287-2.058-1.968-4.431-1.968-6.861v-1.758c0-1.681.449-3.293 1.285-4.702l6.044 5.036 1.899-3.797c.347.262.68.544.988.852.3.301.568.632.825.968.161 1.708.813 3.31 1.88 4.649.043.365.079.734.079 1.102v2.65h-4.382l-2.724-5.447-1.789.895 2.724 5.447c.341.681 1.026 1.105 1.789 1.105h6.382v4h-6.323c-2.581 0-4.939-1.307-6.307-3.495zm16.63 3.495h-2v-4h2c1.103 0 2 .897 2 2s-.897 2-2 2zm3.953-2.461c-.214-1.834-1.659-3.279-3.493-3.493l-4.456-4.457c-1.292-1.291-2.004-3.01-2.004-4.867 0-1.529.526-3.029 1.481-4.223 1.271-1.588 3.166-2.499 5.2-2.499 1.319 0 2.597.387 3.694 1.118l1.625 1.084 1.625-1.084c1.097-.731 2.375-1.118 3.694-1.118 2.034 0 3.929.911 5.2 2.499.955 1.193 1.481 2.693 1.481 4.252 0 1.828-.712 3.547-2.004 4.839l-4.456 4.457c-1.834.214-3.279 1.659-3.493 3.493l-2.047 2.046zm6.047.461c0-1.103.897-2 2-2h2v4h-2c-1.103 0-2-.897-2-2zm21-9c0 2.43-.681 4.803-1.968 6.862l-.401.642c-1.369 2.189-3.727 3.496-6.308 3.496h-6.323v-4h6.382c.763 0 1.448-.424 1.789-1.105l2.724-5.447-1.789-.895-2.724 5.447h-4.382v-2.65c0-.368.036-.736.078-1.102 1.063-1.334 1.715-2.931 1.879-4.648.257-.337.525-.668.825-.969 1.139-1.138 2.56-1.974 4.108-2.417l3.798-1.085c1.496 1.689 2.312 3.839 2.312 6.113zm4-20.479c0 3.011-2.681 5.745-2.708 5.772l-.858.864 2.369 1.578c.75.5 1.198 1.337 1.198 2.238 0 1.277-.91 2.388-2.162 2.639l-1.212.242c-.455-.83-1.023-1.602-1.687-2.307l-.867-5.205.927-.928c.645-.646 1-1.503 1-2.414 0-1.304-.836-2.416-2-2.829v-1.009c0-2.104-1.222-3.977-3.09-4.859-.316-1.318-1.497-2.303-2.91-2.303h-1v2h1c.551 0 1 .448 1 1s-.449 1-1 1h-2c-.801 0-1.555-.313-2.121-.879-.567-.566-.879-1.319-.879-2.121 0-1.654 1.346-3 3-3h3.895c2.951 0 5.751 1.291 7.681 3.541l.076.09c1.516 1.767 2.35 4.022 2.348 6.351z" fill="#000000" data-original="#000000" style="" class=""/><path d="m24.604 43.998c.557-.696 1.436-1.05 2.313-.988l.166-1.992c-1.538-.141-3.067.515-4.04 1.73-.198.248-.372.516-.515.797l1.781.91c.082-.161.182-.315.295-.457z" fill="#000000" data-original="#000000" style="" class=""/><path d="m24.006 45.937-1.996.127c.074 1.172.575 2.277 1.409 3.112l3.531 3.531 1.414-1.414-3.531-3.531c-.497-.497-.783-1.129-.827-1.825z" fill="#000000" data-original="#000000" style="" class=""/><path d="m61 11v-2h-2v2h-2v2h2v2h2v-2h2v-2z" fill="#000000" data-original="#000000" style="" class=""/><path d="m45 7h2v-2h2v-2h-2v-2h-2v2h-2v2h2z" fill="#000000" data-original="#000000" style="" class=""/><path d="m37 5h2v2h-2z" fill="#000000" data-original="#000000" style="" class=""/><path d="m51 13h2v2h-2z" fill="#000000" data-original="#000000" style="" class=""/><path d="m55 3h2v2h-2z" fill="#000000" data-original="#000000" style="" class=""/><path d="m3 15h2v-2h2v-2h-2v-2h-2v2h-2v2h2z" fill="#000000" data-original="#000000" style="" class=""/><path d="m17 11h2v-2h2v-2h-2v-2h-2v2h-2v2h2z" fill="#000000" data-original="#000000" style="" class=""/><path d="m11 13h2v2h-2z" fill="#000000" data-original="#000000" style="" class=""/><path d="m7 1h2v2h-2z" fill="#000000" data-original="#000000" style="" class=""/></g></g></g></svg>
