<?xml version="1.0"?>
<svg xmlns="http://www.w3.org/2000/svg" xmlns:xlink="http://www.w3.org/1999/xlink" xmlns:svgjs="http://svgjs.com/svgjs" version="1.1" width="512" height="512" x="0" y="0" viewBox="0 0 512 512.00203" style="enable-background:new 0 0 512 512" xml:space="preserve" class=""><g><path xmlns="http://www.w3.org/2000/svg" d="m373.804688 405.101562h46.8125c23.996093 0 43.449218 19.449219 43.449218 43.449219v55.84375h-244.894531v-55.84375c0-24 19.453125-43.449219 43.449219-43.449219h46.8125" fill="#4fd1c5" data-original="#515f75" style="" class=""/><path xmlns="http://www.w3.org/2000/svg" d="m288.078125 405.101562 28.289063 99.292969h50.507812l28.289062-99.292969" fill="#f2f2f2" data-original="#f2f2f2" style=""/><path xmlns="http://www.w3.org/2000/svg" d="m373.808594 349.3125v55.792969l-32.1875 18.132812-9.945313-5.601562-22.242187-12.53125v-55.828125l22.242187.011718zm0 0" fill="#f9c2af" data-original="#f9c2af" style="" class=""/><path xmlns="http://www.w3.org/2000/svg" d="m316.542969 504.394531 25.578125-31.597656 24.753906 31.597656" fill="#f74866" data-original="#f74866" style="" class=""/><path xmlns="http://www.w3.org/2000/svg" d="m331.675781 349.289062-22.242187-.011718v55.824218l22.242187 12.535157v-25.8125c3.289063.320312 6.617188.507812 9.988281.507812 11.238282 0 22.050782-1.835937 32.144532-5.222656v-37.796875zm0 0" fill="#ea9e8f" data-original="#ea9e8f" style="" class=""/><path xmlns="http://www.w3.org/2000/svg" d="m240.628906 290.574219c-16.757812 0-30.347656-12.160157-30.347656-27.164063s13.589844-27.164062 30.347656-27.164062h202.078125c16.757813 0 30.347657 12.160156 30.347657 27.164062s-13.589844 27.164063-30.347657 27.164063" fill="#ea9e8f" data-original="#ea9e8f" style="" class=""/><path xmlns="http://www.w3.org/2000/svg" d="m442.707031 176.796875v101.039063c0 55.800781-45.238281 101.035156-101.039062 101.035156-55.804688 0-101.039063-45.234375-101.039063-101.035156v-101.039063" fill="#f9c2af" data-original="#f9c2af" style="" class=""/><path xmlns="http://www.w3.org/2000/svg" d="m340.949219 378.867188c-27.617188-.183594-52.59375-11.457032-70.730469-29.585938-18.285156-18.289062-29.589844-43.542969-29.589844-71.445312v-101.042969h45.488282v101.042969c0 27.902343 6.214843 53.15625 16.269531 71.445312 9.894531 18 23.507812 29.238281 38.5625 29.585938zm0 0" fill="#ea9e8f" data-original="#ea9e8f" style="" class=""/><path xmlns="http://www.w3.org/2000/svg" d="m417.660156 204.246094c-36.609375 13.195312-72.054687 8.753906-97.121094 1.765625 0 0-.011718 0-.011718-.007813-21.828125-6.085937-35.785156-14.105468-35.785156-14.105468s-9.214844 44.34375-44.113282 44.34375c0 0-23.21875-41.070313-22.488281-79.070313.375-19.703125 16.625-34.441406 35.089844-34.441406 3.453125 0 6.980469.507812 10.492187 1.605469 9.890625-26.558594 36.019532-43.371094 64.3125-41.648438 4.40625.273438 8.839844.625 13.289063 1.027344.851562.070312 1.710937.148437 2.5625.226562.089843.011719.175781.019532.265625.027344 46.179687 4.335938 92.953125 12.78125 120.4375-17.625-.003906 0 45.417968 104.636719-46.929688 137.902344zm0 0" fill="#4fd1c5" data-original="#515f75" style="" class=""/><path xmlns="http://www.w3.org/2000/svg" d="m328.035156 82.6875c4.40625.273438 8.835938.625 13.289063 1.027344-40.746094-1.722656-73.117188 88.011718-20.796875 122.289062-21.828125-6.085937-35.785156-14.105468-35.785156-14.105468s-9.214844 44.34375-44.113282 44.34375c0 0-23.21875-41.070313-22.488281-79.070313.375-19.703125 16.625-34.441406 35.089844-34.441406 3.453125 0 6.980469.507812 10.492187 1.605469 9.890625-26.558594 36.019532-43.367188 64.3125-41.648438zm0 0" fill="#3b485b" data-original="#3b485b" style="" class=""/><path xmlns="http://www.w3.org/2000/svg" d="m319.476562 445.382812 21.472657 27.414063 22.191406-27.414063-21.519531-22.144531z" fill="#f74866" data-original="#f74866" style="" class=""/><path xmlns="http://www.w3.org/2000/svg" d="m344.167969 83.976562c-.097657-.015624-.183594-.023437-.28125-.035156.089843.011719.175781.019532.261719.027344zm0 0" fill="#f4af9d" data-original="#f4af9d" style=""/><path xmlns="http://www.w3.org/2000/svg" d="m162.636719 161.476562v46.570313c0 13.945313-10.535157 25.421875-24.09375 26.914063-.984375.109374-1.988281.171874-3 .171874h-19.691407c-14.96875 0-27.09375-12.128906-27.09375-27.085937v-46.570313zm0 0" fill="#3b485b" data-original="#3b485b" style="" class=""/><path xmlns="http://www.w3.org/2000/svg" d="m162.636719 161.476562v46.570313c0 13.945313-10.535157 25.421875-24.09375 26.914063-13.554688-1.480469-24.101563-12.96875-24.101563-26.914063v-46.570313zm0 0" fill="#4fd1c5" data-original="#515f75" style="" class=""/><path xmlns="http://www.w3.org/2000/svg" d="m196.464844 125.691406c0 25.542969-13.539063 47.929688-33.828125 60.371094h-73.878907c-20.300781-12.441406-33.839843-34.828125-33.839843-60.371094 0-39.089844 31.6875-70.777344 70.777343-70.777344 6.480469 0 12.746094.871094 18.710938 2.503907 30.003906 8.191406 52.058594 35.660156 52.058594 68.273437zm0 0" fill="#eaad18" data-original="#eaad18" style="" class=""/><path xmlns="http://www.w3.org/2000/svg" d="m196.464844 125.691406c0 25.542969-13.539063 47.929688-33.828125 60.371094h-36.472657c-20.300781-12.441406-33.839843-34.828125-33.839843-60.371094 0-32.621094 22.066406-60.082031 52.082031-68.273437 30.003906 8.191406 52.058594 35.660156 52.058594 68.273437zm0 0" fill="#ffc627" data-original="#ffc627" style="" class=""/><path xmlns="http://www.w3.org/2000/svg" d="m219.171875 342.621094v47.535156h-57.035156v-47.535156c0-5.253906 4.257812-9.503906 9.5-9.503906h38.035156c5.242187 0 9.5 4.25 9.5 9.503906zm0 0" fill="#f4af9d" data-original="#f4af9d" style=""/><path xmlns="http://www.w3.org/2000/svg" d="m219.171875 342.621094v47.535156h-34.050781v-47.535156c0-5.253906 4.25-9.503906 9.503906-9.503906h15.046875c5.242187 0 9.5 4.25 9.5 9.503906zm0 0" fill="#f9c2af" data-original="#f9c2af" style="" class=""/><path xmlns="http://www.w3.org/2000/svg" d="m162.136719 390.152344h57.035156v113.96875h-57.035156zm0 0" fill="#4fd1c5" data-original="#515f75" style="" class=""/><path xmlns="http://www.w3.org/2000/svg" d="m162.136719 390.152344h22.8125v113.96875h-22.8125zm0 0" fill="#3b485b" data-original="#3b485b" style="" class=""/><path xmlns="http://www.w3.org/2000/svg" d="m385.214844 270.03125v-14.039062c0-4.199219-3.40625-7.605469-7.605469-7.605469-4.203125 0-7.605469 3.40625-7.605469 7.605469v14.039062c0 4.199219 3.402344 7.605469 7.605469 7.605469 4.199219 0 7.605469-3.40625 7.605469-7.605469zm0 0" fill="#000000" data-original="#000000" style="" class=""/><path xmlns="http://www.w3.org/2000/svg" d="m313.328125 255.992188c0-4.199219-3.402344-7.605469-7.605469-7.605469-4.199218 0-7.601562 3.40625-7.601562 7.605469v14.039062c0 4.199219 3.402344 7.605469 7.601562 7.605469 4.203125 0 7.605469-3.40625 7.605469-7.605469zm0 0" fill="#000000" data-original="#000000" style="" class=""/><path xmlns="http://www.w3.org/2000/svg" d="m426.171875 317.746094c-1.796875 3.796875-.175781 8.332031 3.621094 10.125 1.050781.5 2.15625.734375 3.25.734375 2.847656 0 5.578125-1.609375 6.878906-4.355469 4.019531-8.496094 6.875-17.347656 8.5625-26.472656 18.191406-2.558594 32.171875-16.996094 32.171875-34.367188 0-16.789062-13.050781-30.832031-30.347656-34.070312v-34.132813c11.222656-8.765625 19.683594-19.640625 25.257812-32.550781 19.289063-44.652344-3.046875-97.128906-4.007812-99.339844-1.027344-2.371094-3.191406-4.058594-5.742188-4.476562-2.550781-.417969-5.136718.488281-6.875 2.40625-22.179687 24.53125-60.132812 20.640625-100.316406 16.523437-9.882812-1.011719-20.105469-2.058593-30.132812-2.667969-29.671876-1.8125-56.710938 14.238282-69.289063 40.441407-10.863281-1.554688-21.851563 1.117187-30.964844 7.695312-10.992187 7.933594-17.445312 20.246094-17.703125 33.785157-.550781 28.683593 11.472656 58.386718 18.53125 73.273437-15.289062 4.488281-26.390625 17.632813-26.390625 33.113281 0 17.371094 13.976563 31.808594 32.171875 34.367188 3.953125 21.429687 14.257813 41.148437 29.996094 56.882812 10.71875 10.722656 23.289062 18.917969 36.984375 24.3125v18.523438h-39.210937c-13.953126 0-26.617188 5.632812-35.839844 14.742187v-69.617187c0-9.433594-7.675782-17.105469-17.105469-17.105469h-38.035156c-.640625 0-1.273438.042969-1.898438.109375v-35.371094c0-4.199218-3.402343-7.605468-7.601562-7.605468-4.203125 0-7.605469 3.40625-7.605469 7.605468v115.105469c0 4.199219 3.402344 7.605469 7.605469 7.605469 4.199219 0 7.601562-3.40625 7.601562-7.605469v-7.597656h41.828125v98.757812h-41.828125v-60.738281c0-4.199219-3.402343-7.605469-7.601562-7.605469-4.203125 0-7.605469 3.40625-7.605469 7.605469v68.34375c0 4.199219 3.402344 7.878906 7.605469 7.878906h301.925781c4.203125 0 7.605469-3.40625 7.605469-7.605468v-55.847657c0-28.152343-22.902344-51.054687-51.054688-51.054687h-39.203125v-18.515625c17.109375-6.71875 32.425782-17.761719 44.414063-32.433594 2.660156-3.253906 2.175781-8.042969-1.074219-10.699219-3.253906-2.65625-8.042969-2.179687-10.703125 1.074219-17.839844 21.832031-44.222656 34.351563-72.382813 34.351563-24.957031 0-48.421874-9.71875-66.066406-27.367188-17.648437-17.644531-27.367187-41.113281-27.367187-66.074219v-34.625c13.761719-2.289062 25.433593-10.875 34.054687-25.21875 3.265625-5.429687 5.574219-10.847656 7.140625-15.207031 20.273438 9.394531 73.78125 29.171875 130.8125 8.625 5.277344-1.902344 10.222657-4.070312 14.859375-6.480469v72.90625c.003906 13.964844-3 27.394531-8.925781 39.914063zm-50.363281 94.960937h9.28125l-9.589844 33.65625-21.414062-21.417969zm36.273437 0 2.105469 53.332031-22.089844 5.523438c-2.65625.664062-4.753906 2.707031-5.484375 5.347656s.015625 5.46875 1.953125 7.40625l12.472656 12.472656h-24.089843l23.957031-84.082031zm-115.460937 64.203125c-.730469-2.640625-2.824219-4.683594-5.480469-5.347656l-22.09375-5.523438 2.105469-53.332031h11.183594l23.957031 84.082031h-24.09375l12.472656-12.472656c1.9375-1.9375 2.683594-4.765625 1.949219-7.40625zm45-42.917968 11.582031 11.582031-12.15625 15.015625-11.429687-14.589844zm29.109375 29.113281-7.078125 24.84375-12.386719-15.8125 12.75-15.746094zm-51.949219-6.273438 13.023438 16.621094-12.089844 14.9375-7.203125-25.289063zm23.242188 28.171875 9.234374 11.785156h-18.773437zm-34.28125-38.640625-9.589844-33.65625h9.28125l21.726562 12.238281zm-138-63.816406v-39.929687c0-1.042969.847656-1.894532 1.894531-1.894532h38.035156c1.046875 0 1.894531.851563 1.894531 1.894532v39.929687zm57.035156 66.003906c0-17.46875 12.5625-32.050781 29.128906-35.207031l-2.296875 58.273438c-.144531 3.601562 2.257813 6.804687 5.753906 7.679687l15.058594 3.761719-13.730469 13.730468h-33.914062zm229.683594 0v48.238281h-33.914063l-13.726563-13.726562 15.054688-3.765625c3.496094-.875 5.898438-4.078125 5.757812-7.675781l-2.300781-58.273438c16.5625 3.152344 29.128907 17.734375 29.128907 35.203125zm-90.257813-64.855469v16.964844l-24.582031 13.847656-24.582032-13.847656v-16.972656c7.984376 1.84375 16.234376 2.792969 24.628907 2.792969 8.355469 0 16.578125-.953125 24.535156-2.785157zm-148.316406-120.285156c0-8.492187 6.328125-15.734375 15.136719-18.429687v32.851562c0 1.347657.03125 2.691407.082031 4.035157-8.851563-2.679688-15.21875-9.9375-15.21875-18.457032zm197.199219-66.316406c-64.238282 23.144531-125.949219-11.445312-126.558594-11.792969-2.109375-1.210937-4.671875-1.335937-6.890625-.339843-2.222657.988281-3.835938 2.992187-4.339844 5.371093-.078125.363281-7.566406 34.300781-32.242187 37.984375-5.585938-11.097656-19.859376-42.347656-19.3125-71 .164062-8.710937 4.320312-16.636718 11.398437-21.746094 4.785156-3.453124 10.371094-5.238281 16.066406-5.238281 2.757813 0 5.535157.417969 8.257813 1.265625 3.855468 1.199219 7.976562-.824218 9.386718-4.609375 8.742188-23.488281 31.539063-38.238281 56.714844-36.703125 9.71875.589844 19.78125 1.621094 29.511719 2.617188 37.839844 3.878906 76.839844 7.875 104.214844-13.1875 5.082031 16.324218 12.34375 49.0625.3125 76.914062-8.046875 18.628906-23.699219 32.246094-46.519531 40.464844zm50.359374 66.316406c0 8.519532-6.363281 15.777344-15.214843 18.457032.046875-1.34375.078125-2.683594.078125-4.035157v-32.851562c8.8125 2.695312 15.136718 9.9375 15.136718 18.429687zm0 0" fill="#000000" data-original="#000000" style="" class=""/><path xmlns="http://www.w3.org/2000/svg" d="m341.667969 331.328125c10.921875 0 21.847656-4.15625 30.164062-12.472656 2.96875-2.972657 2.96875-7.785157 0-10.757813-2.96875-2.96875-7.785156-2.96875-10.753906 0-10.703125 10.703125-28.117187 10.707032-38.820313 0-2.972656-2.96875-7.785156-2.96875-10.757812 0-2.96875 2.972656-2.96875 7.785156 0 10.757813 8.316406 8.316406 19.242188 12.472656 30.167969 12.472656zm0 0" fill="#000000" data-original="#000000" style="" class=""/><path xmlns="http://www.w3.org/2000/svg" d="m170.238281 208.042969v-17.867188c21.261719-14.660156 33.828125-38.453125 33.828125-64.484375 0-43.222656-35.15625-78.382812-78.371094-78.382812-43.21875 0-78.382812 35.160156-78.382812 78.382812 0 26.03125 12.574219 49.824219 33.835938 64.484375v17.867188c0 19.128906 15.566406 34.695312 34.695312 34.695312h19.699219c19.132812 0 34.695312-15.566406 34.695312-34.695312zm-107.714843-82.351563c0-34.835937 28.339843-63.171875 63.171874-63.171875 34.828126 0 63.164063 28.335938 63.164063 63.171875 0 21.449219-10.589844 41.023438-28.433594 52.769532h-10.960937v-44.179688c0-4.199219-3.40625-7.605469-7.605469-7.605469s-7.605469 3.40625-7.605469 7.605469v44.179688h-17.125v-44.179688c0-4.199219-3.40625-7.605469-7.605468-7.605469-4.203126 0-7.605469 3.40625-7.605469 7.605469v44.179688h-10.953125c-17.851563-11.746094-28.441406-31.316407-28.441406-52.769532zm92.503906 82.351563c0 10.742187-8.742188 19.484375-19.484375 19.484375h-19.699219c-10.742188 0-19.484375-8.742188-19.484375-19.484375v-14.375h13.160156.003907.003906 32.328125.003906.003906 13.164063zm0 0" fill="#000000" data-original="#000000" style="" class=""/><path xmlns="http://www.w3.org/2000/svg" d="m36.421875 125.691406c0-4.199218-3.40625-7.605468-7.605469-7.605468h-21.210937c-4.199219 0-7.605469 3.40625-7.605469 7.605468 0 4.199219 3.40625 7.605469 7.605469 7.605469h21.210937c4.199219 0 7.605469-3.40625 7.605469-7.605469zm0 0" fill="#000000" data-original="#000000" style="" class=""/><path xmlns="http://www.w3.org/2000/svg" d="m209.59375 84.859375c1.289062 0 2.597656-.328125 3.796875-1.019531l18.367187-10.605469c3.636719-2.101563 4.882813-6.753906 2.785157-10.390625-2.101563-3.636719-6.753907-4.882812-10.390625-2.78125l-18.367188 10.605469c-3.636718 2.097656-4.886718 6.75-2.785156 10.386719 1.410156 2.441406 3.964844 3.804687 6.59375 3.804687zm0 0" fill="#000000" data-original="#000000" style="" class=""/><path xmlns="http://www.w3.org/2000/svg" d="m37.992188 167.542969-18.367188 10.605469c-3.636719 2.097656-4.882812 6.75-2.785156 10.386718 1.410156 2.441406 3.964844 3.804688 6.59375 3.804688 1.289062 0 2.597656-.328125 3.796875-1.019532l18.367187-10.605468c3.636719-2.101563 4.882813-6.753906 2.785156-10.390625-2.101562-3.636719-6.753906-4.882813-10.390624-2.78125zm0 0" fill="#000000" data-original="#000000" style="" class=""/><path xmlns="http://www.w3.org/2000/svg" d="m170.324219 48.378906c1.199219.691406 2.507812 1.023438 3.796875 1.023438 2.628906 0 5.183594-1.367188 6.59375-3.804688l10.605468-18.371094c2.101563-3.636718.851563-8.285156-2.785156-10.386718-3.636718-2.101563-8.289062-.855469-10.386718 2.785156l-10.605469 18.367188c-2.101563 3.636718-.855469 8.289062 2.78125 10.386718zm0 0" fill="#000000" data-original="#000000" style="" class=""/><path xmlns="http://www.w3.org/2000/svg" d="m125.691406 36.421875c4.199219 0 7.605469-3.40625 7.605469-7.605469v-21.210937c0-4.199219-3.40625-7.605469-7.605469-7.605469-4.199218 0-7.605468 3.40625-7.605468 7.605469v21.210937c0 4.199219 3.40625 7.605469 7.605468 7.605469zm0 0" fill="#000000" data-original="#000000" style="" class=""/><path xmlns="http://www.w3.org/2000/svg" d="m70.667969 45.597656c1.40625 2.4375 3.964843 3.804688 6.59375 3.804688 1.289062 0 2.597656-.332032 3.792969-1.023438 3.636718-2.097656 4.882812-6.75 2.785156-10.386718l-10.605469-18.367188c-2.101563-3.640625-6.75-4.886719-10.386719-2.785156-3.640625 2.101562-4.886718 6.75-2.785156 10.386718zm0 0" fill="#000000" data-original="#000000" style="" class=""/><path xmlns="http://www.w3.org/2000/svg" d="m19.625 73.234375 18.367188 10.605469c1.195312.691406 2.503906 1.019531 3.796874 1.019531 2.625 0 5.183594-1.363281 6.589844-3.804687 2.101563-3.636719.855469-8.289063-2.78125-10.386719l-18.371094-10.605469c-3.636718-2.101562-8.289062-.855469-10.386718 2.78125-2.101563 3.636719-.855469 8.289062 2.785156 10.390625zm0 0" fill="#000000" data-original="#000000" style="" class=""/></g></svg>
